<svg width="24" height="24" viewBox="0 0 24 24" fill="none" xmlns="http://www.w3.org/2000/svg">
<path d="M12.0023 6.61758C9.02276 6.61758 6.61941 9.02227 6.61941 12.0035C6.61941 14.9848 9.02276 17.3895 12.0023 17.3895C14.9819 17.3895 17.3853 14.9848 17.3853 12.0035C17.3853 9.02227 14.9819 6.61758 12.0023 6.61758ZM12.0023 15.5051C10.0769 15.5051 8.50273 13.9348 8.50273 12.0035C8.50273 10.0723 10.0722 8.50195 12.0023 8.50195C13.9325 8.50195 15.502 10.0723 15.502 12.0035C15.502 13.9348 13.9278 15.5051 12.0023 15.5051ZM18.861 6.39727C18.861 7.0957 18.2988 7.65352 17.6055 7.65352C16.9074 7.65352 16.3499 7.09102 16.3499 6.39727C16.3499 5.70352 16.9121 5.14102 17.6055 5.14102C18.2988 5.14102 18.861 5.70352 18.861 6.39727ZM22.4262 7.67227C22.3466 5.98945 21.9624 4.49883 20.7303 3.2707C19.5028 2.04258 18.0131 1.6582 16.3312 1.57383C14.5978 1.47539 9.40223 1.47539 7.66882 1.57383C5.99163 1.65352 4.50184 2.03789 3.26972 3.26602C2.03759 4.49414 1.65811 5.98477 1.57379 7.66758C1.4754 9.40195 1.4754 14.6004 1.57379 16.3348C1.65343 18.0176 2.03759 19.5082 3.26972 20.7363C4.50184 21.9645 5.98695 22.3488 7.66882 22.4332C9.40223 22.5316 14.5978 22.5316 16.3312 22.4332C18.0131 22.3535 19.5028 21.9691 20.7303 20.7363C21.9577 19.5082 22.3419 18.0176 22.4262 16.3348C22.5246 14.6004 22.5246 9.40664 22.4262 7.67227ZM20.1868 18.1957C19.8214 19.1145 19.114 19.8223 18.1911 20.1926C16.809 20.741 13.5296 20.6145 12.0023 20.6145C10.4751 20.6145 7.19096 20.7363 5.81361 20.1926C4.89537 19.827 4.18795 19.1191 3.81785 18.1957C3.26972 16.8129 3.39621 13.5316 3.39621 12.0035C3.39621 10.4754 3.2744 7.18945 3.81785 5.81133C4.18327 4.89258 4.89069 4.18477 5.81361 3.81445C7.19565 3.26602 10.4751 3.39258 12.0023 3.39258C13.5296 3.39258 16.8137 3.2707 18.1911 3.81445C19.1093 4.18008 19.8167 4.88789 20.1868 5.81133C20.735 7.19414 20.6085 10.4754 20.6085 12.0035C20.6085 13.5316 20.735 16.8176 20.1868 18.1957Z" fill="#000"/>
</svg>
